<svg
  width="709"
  height="706"
  viewBox="0 0 709 706"
  fill="none"
  xmlns="http://www.w3.org/2000/svg"
>
<g filter="url(#filter0_f_12_608)">
<ellipse
      cx="356.032"
      cy="352.769"
      rx="202.168"
      ry="206.057"
      transform="rotate(-100 356.032 352.769)"
      fill="url(#paint0_linear_12_608)"
      fill-opacity="0.3"
    />
</g>
<path
    d="M450.52 246C396.584 198.972 360.514 186.587 278.52 206.5L224.52 259C172.56 327.515 189.828 374.886 250.02 460.5C378.403 469.059 444.7 469.527 476.52 362.5L450.52 246Z"
    stroke="white"
  />
<rect x="138.519" y="152" width="199" height="140" rx="20" fill="#1E47FF" />
<path
    d="M170.637 181V170.818H174.267C175.059 170.818 175.715 170.962 176.235 171.251C176.756 171.539 177.145 171.933 177.404 172.434C177.662 172.931 177.792 173.491 177.792 174.114C177.792 174.741 177.661 175.304 177.399 175.805C177.14 176.302 176.749 176.696 176.225 176.988C175.705 177.276 175.051 177.42 174.262 177.42H171.766V176.118H174.122C174.623 176.118 175.029 176.032 175.341 175.859C175.652 175.684 175.881 175.445 176.027 175.143C176.172 174.842 176.245 174.499 176.245 174.114C176.245 173.73 176.172 173.388 176.027 173.09C175.881 172.792 175.65 172.558 175.336 172.389C175.024 172.22 174.613 172.136 174.103 172.136H172.174V181H170.637ZM179.473 181V173.364H180.91V174.577H180.99C181.129 174.166 181.374 173.843 181.725 173.607C182.08 173.369 182.481 173.249 182.928 173.249C183.021 173.249 183.131 173.253 183.257 173.259C183.386 173.266 183.487 173.274 183.56 173.284V174.706C183.5 174.689 183.394 174.671 183.242 174.651C183.089 174.628 182.937 174.616 182.784 174.616C182.433 174.616 182.12 174.691 181.845 174.84C181.573 174.986 181.357 175.19 181.198 175.452C181.039 175.71 180.96 176.005 180.96 176.337V181H179.473ZM187.789 181.154C187.073 181.154 186.449 180.99 185.915 180.662C185.381 180.334 184.967 179.875 184.672 179.285C184.377 178.695 184.23 178.005 184.23 177.217C184.23 176.424 184.377 175.732 184.672 175.138C184.967 174.545 185.381 174.085 185.915 173.756C186.449 173.428 187.073 173.264 187.789 173.264C188.505 173.264 189.13 173.428 189.664 173.756C190.197 174.085 190.612 174.545 190.907 175.138C191.202 175.732 191.349 176.424 191.349 177.217C191.349 178.005 191.202 178.695 190.907 179.285C190.612 179.875 190.197 180.334 189.664 180.662C189.13 180.99 188.505 181.154 187.789 181.154ZM187.794 179.906C188.258 179.906 188.643 179.784 188.948 179.538C189.253 179.293 189.478 178.967 189.624 178.559C189.773 178.151 189.848 177.702 189.848 177.212C189.848 176.724 189.773 176.277 189.624 175.869C189.478 175.458 189.253 175.129 188.948 174.88C188.643 174.631 188.258 174.507 187.794 174.507C187.327 174.507 186.939 174.631 186.631 174.88C186.326 175.129 186.099 175.458 185.95 175.869C185.804 176.277 185.731 176.724 185.731 177.212C185.731 177.702 185.804 178.151 185.95 178.559C186.099 178.967 186.326 179.293 186.631 179.538C186.939 179.784 187.327 179.906 187.794 179.906ZM196.643 173.364V174.557H192.327V173.364H196.643ZM193.51 181V172.479C193.51 172.001 193.615 171.605 193.824 171.29C194.032 170.972 194.309 170.735 194.654 170.58C194.999 170.42 195.373 170.341 195.777 170.341C196.076 170.341 196.331 170.366 196.543 170.415C196.755 170.462 196.913 170.505 197.015 170.545L196.667 171.748C196.598 171.728 196.508 171.705 196.399 171.678C196.29 171.648 196.157 171.634 196.001 171.634C195.64 171.634 195.381 171.723 195.226 171.902C195.073 172.081 194.997 172.339 194.997 172.678V181H193.51ZM198.176 181V173.364H199.663V181H198.176ZM198.927 172.185C198.668 172.185 198.446 172.099 198.261 171.927C198.079 171.751 197.987 171.542 197.987 171.3C197.987 171.055 198.079 170.846 198.261 170.674C198.446 170.498 198.668 170.411 198.927 170.411C199.186 170.411 199.406 170.498 199.588 170.674C199.774 170.846 199.867 171.055 199.867 171.3C199.867 171.542 199.774 171.751 199.588 171.927C199.406 172.099 199.186 172.185 198.927 172.185ZM205.227 173.364V174.557H201.056V173.364H205.227ZM202.175 171.534H203.661V178.758C203.661 179.046 203.704 179.263 203.79 179.409C203.877 179.552 203.988 179.649 204.124 179.702C204.263 179.752 204.414 179.777 204.576 179.777C204.695 179.777 204.8 179.769 204.889 179.752C204.979 179.736 205.048 179.722 205.098 179.712L205.366 180.94C205.28 180.973 205.158 181.007 204.999 181.04C204.839 181.076 204.641 181.096 204.402 181.099C204.011 181.106 203.646 181.036 203.308 180.891C202.97 180.745 202.697 180.519 202.488 180.214C202.279 179.91 202.175 179.527 202.175 179.066V171.534Z"
    fill="white"
  />
<path
    d="M268.387 179.449V172.409H270.167V179.449H268.387ZM265.757 176.819V175.039H272.796V176.819H265.757ZM281.819 181.139C281.116 181.139 280.49 181.01 279.939 180.751C279.393 180.493 278.958 180.137 278.637 179.683C278.315 179.228 278.148 178.708 278.135 178.121H280.223C280.246 178.516 280.412 178.836 280.72 179.081C281.028 179.326 281.394 179.449 281.819 179.449C282.157 179.449 282.455 179.374 282.714 179.225C282.975 179.073 283.179 178.862 283.325 178.594C283.474 178.322 283.549 178.01 283.549 177.659C283.549 177.301 283.473 176.986 283.32 176.714C283.171 176.443 282.964 176.231 282.699 176.078C282.434 175.926 282.13 175.848 281.789 175.844C281.491 175.844 281.201 175.906 280.919 176.028C280.64 176.151 280.423 176.318 280.268 176.531L278.353 176.188L278.836 170.818H285.06V172.578H280.611L280.347 175.129H280.407C280.586 174.877 280.856 174.668 281.217 174.502C281.578 174.336 281.983 174.254 282.43 174.254C283.043 174.254 283.59 174.398 284.071 174.686C284.551 174.974 284.931 175.371 285.209 175.874C285.488 176.375 285.625 176.951 285.622 177.604C285.625 178.29 285.466 178.9 285.145 179.434C284.827 179.964 284.381 180.382 283.807 180.687C283.237 180.988 282.574 181.139 281.819 181.139ZM290.922 181.139C290.156 181.139 289.475 181.015 288.878 180.766C288.285 180.514 287.819 180.171 287.481 179.737C287.143 179.303 286.974 178.811 286.974 178.261C286.974 177.836 287.07 177.447 287.263 177.092C287.458 176.734 287.723 176.438 288.058 176.202C288.393 175.964 288.767 175.811 289.182 175.745V175.675C288.638 175.566 288.197 175.303 287.859 174.885C287.521 174.464 287.352 173.975 287.352 173.418C287.352 172.891 287.506 172.422 287.814 172.011C288.123 171.597 288.545 171.272 289.082 171.037C289.622 170.798 290.236 170.679 290.922 170.679C291.608 170.679 292.219 170.798 292.756 171.037C293.296 171.276 293.721 171.602 294.029 172.016C294.337 172.427 294.493 172.895 294.496 173.418C294.493 173.978 294.321 174.467 293.979 174.885C293.638 175.303 293.2 175.566 292.667 175.675V175.745C293.074 175.811 293.444 175.964 293.775 176.202C294.11 176.438 294.375 176.734 294.571 177.092C294.77 177.447 294.871 177.836 294.874 178.261C294.871 178.811 294.7 179.303 294.362 179.737C294.024 180.171 293.557 180.514 292.96 180.766C292.367 181.015 291.687 181.139 290.922 181.139ZM290.922 179.558C291.263 179.558 291.561 179.497 291.817 179.374C292.072 179.248 292.271 179.076 292.413 178.857C292.559 178.635 292.632 178.38 292.632 178.092C292.632 177.797 292.557 177.536 292.408 177.311C292.259 177.082 292.057 176.903 291.802 176.774C291.546 176.642 291.253 176.575 290.922 176.575C290.594 176.575 290.3 176.642 290.042 176.774C289.783 176.903 289.579 177.082 289.43 177.311C289.284 177.536 289.211 177.797 289.211 178.092C289.211 178.38 289.283 178.635 289.425 178.857C289.568 179.076 289.768 179.248 290.027 179.374C290.285 179.497 290.584 179.558 290.922 179.558ZM290.922 175.009C291.207 175.009 291.46 174.951 291.682 174.835C291.904 174.719 292.078 174.558 292.204 174.353C292.33 174.147 292.393 173.911 292.393 173.642C292.393 173.377 292.33 173.145 292.204 172.946C292.078 172.744 291.906 172.586 291.687 172.474C291.469 172.358 291.213 172.3 290.922 172.3C290.633 172.3 290.378 172.358 290.156 172.474C289.934 172.586 289.76 172.744 289.634 172.946C289.511 173.145 289.45 173.377 289.45 173.642C289.45 173.911 289.513 174.147 289.639 174.353C289.765 174.558 289.939 174.719 290.161 174.835C290.383 174.951 290.637 175.009 290.922 175.009ZM301.952 179.091V178.554C301.952 178.146 302.039 177.772 302.211 177.43C302.387 177.086 302.64 176.811 302.972 176.605C303.306 176.396 303.714 176.292 304.195 176.292C304.682 176.292 305.091 176.395 305.423 176.6C305.757 176.806 306.009 177.081 306.178 177.425C306.351 177.767 306.437 178.143 306.437 178.554V179.091C306.437 179.499 306.351 179.875 306.178 180.219C306.006 180.561 305.752 180.834 305.418 181.04C305.083 181.249 304.675 181.353 304.195 181.353C303.707 181.353 303.298 181.249 302.967 181.04C302.635 180.834 302.383 180.561 302.211 180.219C302.039 179.875 301.952 179.499 301.952 179.091ZM303.399 178.554V179.091C303.399 179.326 303.455 179.548 303.568 179.757C303.684 179.966 303.893 180.07 304.195 180.07C304.496 180.07 304.702 179.968 304.811 179.762C304.924 179.557 304.98 179.333 304.98 179.091V178.554C304.98 178.312 304.927 178.087 304.821 177.878C304.715 177.669 304.506 177.565 304.195 177.565C303.896 177.565 303.689 177.669 303.573 177.878C303.457 178.087 303.399 178.312 303.399 178.554ZM296.727 173.264V172.727C296.727 172.316 296.815 171.94 296.991 171.599C297.166 171.254 297.42 170.979 297.751 170.773C298.086 170.568 298.491 170.465 298.964 170.465C299.455 170.465 299.866 170.568 300.197 170.773C300.529 170.979 300.781 171.254 300.953 171.599C301.125 171.94 301.212 172.316 301.212 172.727V173.264C301.212 173.675 301.124 174.051 300.948 174.393C300.776 174.734 300.522 175.008 300.187 175.213C299.856 175.415 299.448 175.516 298.964 175.516C298.481 175.516 298.071 175.414 297.736 175.208C297.405 174.999 297.153 174.726 296.981 174.388C296.812 174.046 296.727 173.672 296.727 173.264ZM298.184 172.727V173.264C298.184 173.506 298.24 173.73 298.353 173.935C298.469 174.141 298.673 174.244 298.964 174.244C299.269 174.244 299.477 174.141 299.586 173.935C299.699 173.73 299.755 173.506 299.755 173.264V172.727C299.755 172.485 299.702 172.26 299.596 172.051C299.49 171.842 299.279 171.738 298.964 171.738C298.669 171.738 298.466 171.844 298.353 172.056C298.24 172.268 298.184 172.492 298.184 172.727ZM297.384 181L304.384 170.818H305.686L298.686 181H297.384Z"
    fill="white"
  />
<path
    d="M173.765 202.273V189.545H174.58V202.273H173.765ZM175.927 193.746C175.887 193.345 175.717 193.034 175.415 192.812C175.113 192.59 174.704 192.479 174.187 192.479C173.836 192.479 173.539 192.528 173.297 192.628C173.055 192.724 172.87 192.858 172.74 193.031C172.614 193.203 172.551 193.398 172.551 193.617C172.545 193.799 172.583 193.959 172.666 194.094C172.752 194.23 172.87 194.348 173.019 194.447C173.168 194.544 173.34 194.628 173.536 194.701C173.731 194.771 173.94 194.83 174.162 194.88L175.077 195.099C175.521 195.198 175.929 195.331 176.3 195.496C176.671 195.662 176.993 195.866 177.265 196.108C177.536 196.35 177.747 196.635 177.896 196.963C178.048 197.291 178.126 197.667 178.13 198.092C178.126 198.715 177.967 199.255 177.652 199.712C177.341 200.166 176.89 200.519 176.3 200.771C175.713 201.02 175.006 201.144 174.177 201.144C173.355 201.144 172.639 201.018 172.029 200.766C171.423 200.514 170.949 200.142 170.608 199.648C170.27 199.151 170.092 198.536 170.076 197.803H172.159C172.182 198.145 172.28 198.43 172.452 198.658C172.628 198.884 172.861 199.054 173.153 199.17C173.448 199.283 173.781 199.339 174.152 199.339C174.517 199.339 174.833 199.286 175.102 199.18C175.374 199.074 175.584 198.927 175.733 198.738C175.882 198.549 175.957 198.332 175.957 198.087C175.957 197.858 175.889 197.666 175.753 197.51C175.621 197.354 175.425 197.222 175.167 197.112C174.911 197.003 174.598 196.903 174.227 196.814L173.118 196.536C172.26 196.327 171.582 196 171.085 195.556C170.588 195.112 170.341 194.514 170.344 193.761C170.341 193.145 170.505 192.606 170.836 192.146C171.171 191.685 171.63 191.325 172.213 191.067C172.797 190.808 173.46 190.679 174.202 190.679C174.958 190.679 175.617 190.808 176.181 191.067C176.747 191.325 177.188 191.685 177.503 192.146C177.818 192.606 177.98 193.14 177.99 193.746H175.927ZM182.758 201V199.449L186.382 196.093C186.691 195.795 186.949 195.526 187.158 195.288C187.37 195.049 187.531 194.815 187.64 194.587C187.75 194.355 187.804 194.104 187.804 193.836C187.804 193.538 187.736 193.281 187.6 193.065C187.465 192.847 187.279 192.679 187.044 192.563C186.808 192.444 186.542 192.384 186.243 192.384C185.932 192.384 185.66 192.447 185.428 192.573C185.196 192.699 185.017 192.88 184.891 193.115C184.765 193.35 184.702 193.63 184.702 193.955H182.659C182.659 193.289 182.81 192.711 183.111 192.22C183.413 191.73 183.835 191.35 184.379 191.082C184.922 190.813 185.549 190.679 186.258 190.679C186.987 190.679 187.622 190.808 188.162 191.067C188.706 191.322 189.128 191.677 189.43 192.131C189.732 192.585 189.882 193.105 189.882 193.692C189.882 194.076 189.806 194.456 189.654 194.83C189.505 195.205 189.238 195.621 188.853 196.078C188.469 196.532 187.927 197.077 187.228 197.714L185.741 199.17V199.24H190.017V201H182.758ZM195.34 201.139C194.598 201.139 193.936 201.012 193.356 200.756C192.78 200.498 192.324 200.143 191.989 199.692C191.658 199.238 191.487 198.715 191.477 198.121H193.645C193.658 198.37 193.739 198.589 193.888 198.778C194.041 198.963 194.243 199.107 194.495 199.21C194.747 199.313 195.03 199.364 195.345 199.364C195.673 199.364 195.963 199.306 196.215 199.19C196.467 199.074 196.664 198.914 196.807 198.708C196.949 198.503 197.02 198.266 197.02 197.997C197.02 197.725 196.944 197.485 196.792 197.276C196.643 197.064 196.427 196.898 196.145 196.779C195.867 196.66 195.536 196.6 195.151 196.6H194.202V195.019H195.151C195.476 195.019 195.763 194.963 196.011 194.85C196.263 194.737 196.459 194.582 196.598 194.383C196.737 194.181 196.807 193.945 196.807 193.677C196.807 193.422 196.745 193.198 196.623 193.006C196.503 192.81 196.334 192.658 196.116 192.548C195.9 192.439 195.648 192.384 195.36 192.384C195.068 192.384 194.801 192.437 194.559 192.543C194.318 192.646 194.124 192.794 193.978 192.986C193.832 193.178 193.754 193.403 193.744 193.662H191.681C191.691 193.075 191.858 192.558 192.183 192.111C192.508 191.663 192.945 191.314 193.496 191.062C194.049 190.807 194.674 190.679 195.37 190.679C196.072 190.679 196.687 190.807 197.214 191.062C197.741 191.317 198.151 191.662 198.442 192.096C198.737 192.527 198.883 193.011 198.88 193.548C198.883 194.118 198.706 194.593 198.348 194.974C197.993 195.356 197.531 195.598 196.961 195.7V195.78C197.71 195.876 198.28 196.136 198.671 196.56C199.065 196.981 199.261 197.508 199.258 198.141C199.261 198.721 199.094 199.237 198.755 199.688C198.421 200.138 197.958 200.493 197.368 200.751C196.778 201.01 196.102 201.139 195.34 201.139ZM202.84 199.608L202.785 200.155C202.742 200.592 202.659 201.028 202.536 201.462C202.417 201.9 202.291 202.296 202.159 202.651C202.029 203.005 201.925 203.284 201.845 203.486H200.473C200.523 203.29 200.591 203.017 200.677 202.665C200.763 202.317 200.844 201.926 200.921 201.492C200.997 201.058 201.045 200.616 201.065 200.165L201.09 199.608H202.84ZM204.602 199.21V197.515L208.853 190.818H210.314V193.165H209.449L206.77 197.406V197.485H212.81V199.21H204.602ZM209.489 201V198.693L209.529 197.942V190.818H211.547V201H209.489ZM217.963 201.139C217.261 201.139 216.634 201.01 216.084 200.751C215.537 200.493 215.103 200.137 214.781 199.683C214.46 199.228 214.293 198.708 214.279 198.121H216.367C216.391 198.516 216.556 198.836 216.865 199.081C217.173 199.326 217.539 199.449 217.963 199.449C218.301 199.449 218.6 199.374 218.858 199.225C219.12 199.073 219.324 198.862 219.47 198.594C219.619 198.322 219.693 198.01 219.693 197.659C219.693 197.301 219.617 196.986 219.465 196.714C219.315 196.443 219.108 196.231 218.843 196.078C218.578 195.926 218.275 195.848 217.933 195.844C217.635 195.844 217.345 195.906 217.063 196.028C216.785 196.151 216.568 196.318 216.412 196.531L214.498 196.188L214.98 190.818H221.205V192.578H216.755L216.492 195.129H216.551C216.73 194.877 217 194.668 217.362 194.502C217.723 194.336 218.127 194.254 218.575 194.254C219.188 194.254 219.735 194.398 220.215 194.686C220.696 194.974 221.075 195.371 221.354 195.874C221.632 196.375 221.77 196.951 221.766 197.604C221.77 198.29 221.611 198.9 221.289 199.434C220.971 199.964 220.525 200.382 219.952 200.687C219.382 200.988 218.719 201.139 217.963 201.139ZM227.176 201.139C226.652 201.136 226.146 201.048 225.659 200.876C225.175 200.703 224.741 200.423 224.357 200.036C223.972 199.648 223.667 199.134 223.442 198.494C223.22 197.855 223.109 197.069 223.109 196.138C223.112 195.283 223.21 194.519 223.402 193.846C223.598 193.17 223.876 192.596 224.237 192.126C224.602 191.655 225.038 191.297 225.545 191.052C226.052 190.803 226.62 190.679 227.25 190.679C227.93 190.679 228.53 190.812 229.05 191.077C229.57 191.339 229.988 191.695 230.303 192.146C230.621 192.596 230.813 193.102 230.879 193.662H228.757C228.674 193.307 228.5 193.029 228.235 192.827C227.969 192.625 227.641 192.523 227.25 192.523C226.587 192.523 226.083 192.812 225.739 193.388C225.397 193.965 225.223 194.749 225.217 195.74H225.286C225.439 195.438 225.644 195.182 225.903 194.969C226.165 194.754 226.461 194.59 226.793 194.477C227.128 194.361 227.481 194.303 227.852 194.303C228.455 194.303 228.992 194.446 229.463 194.731C229.933 195.013 230.304 195.4 230.576 195.894C230.848 196.388 230.984 196.953 230.984 197.589C230.984 198.279 230.823 198.892 230.502 199.429C230.183 199.966 229.738 200.387 229.164 200.692C228.594 200.993 227.931 201.143 227.176 201.139ZM227.166 199.449C227.497 199.449 227.794 199.369 228.056 199.21C228.317 199.051 228.523 198.836 228.672 198.564C228.821 198.292 228.896 197.987 228.896 197.649C228.896 197.311 228.821 197.008 228.672 196.739C228.526 196.471 228.324 196.257 228.065 196.098C227.807 195.939 227.512 195.859 227.181 195.859C226.932 195.859 226.702 195.906 226.49 195.999C226.281 196.091 226.097 196.221 225.938 196.386C225.782 196.552 225.659 196.744 225.57 196.963C225.48 197.179 225.436 197.409 225.436 197.654C225.436 197.982 225.51 198.282 225.659 198.554C225.812 198.826 226.017 199.043 226.276 199.205C226.538 199.368 226.834 199.449 227.166 199.449Z"
    fill="white"
  />
<path
    d="M197.019 231C186.019 232 180.846 237.009 169.019 250.5V280H308.519V204.5C300.519 216.5 298.519 231 283.519 231C268.519 231 264.519 212.5 253.019 215C241.519 217.5 235.519 243.5 225.519 243C215.519 242.5 208.019 230 197.019 231Z"
    fill="url(#paint1_linear_12_608)"
    fill-opacity="0.35"
  />
<path
    d="M169.019 250.5C180.846 237.009 186.019 232 197.019 231C208.019 230 215.519 242.5 225.519 243C235.519 243.5 241.519 217.5 253.019 215C264.519 212.5 268.519 231 283.519 231C298.519 231 300.519 216.5 308.519 204.5"
    stroke="white"
    stroke-width="3"
    stroke-linecap="round"
  />
<rect x="400.519" y="192" width="167" height="189" rx="20" fill="white" />
<path
    d="M428.076 215.364V213.818H436.199V215.364H433.052V224H431.223V215.364H428.076ZM438.844 224.154C438.36 224.154 437.924 224.068 437.537 223.896C437.152 223.72 436.847 223.461 436.622 223.12C436.4 222.779 436.289 222.358 436.289 221.857C436.289 221.426 436.368 221.07 436.527 220.788C436.686 220.507 436.904 220.281 437.179 220.112C437.454 219.943 437.764 219.816 438.108 219.729C438.456 219.64 438.816 219.575 439.187 219.536C439.635 219.489 439.997 219.448 440.276 219.411C440.554 219.371 440.756 219.312 440.882 219.232C441.012 219.149 441.076 219.022 441.076 218.849V218.82C441.076 218.445 440.965 218.155 440.743 217.95C440.521 217.744 440.201 217.641 439.784 217.641C439.343 217.641 438.993 217.737 438.735 217.93C438.479 218.122 438.307 218.349 438.218 218.611L436.537 218.372C436.67 217.908 436.889 217.52 437.194 217.209C437.498 216.894 437.871 216.659 438.312 216.503C438.753 216.344 439.24 216.264 439.774 216.264C440.142 216.264 440.508 216.307 440.872 216.393C441.237 216.48 441.57 216.622 441.872 216.821C442.173 217.017 442.415 217.283 442.598 217.621C442.783 217.96 442.876 218.382 442.876 218.889V224H441.146V222.951H441.086C440.977 223.163 440.823 223.362 440.624 223.548C440.428 223.73 440.181 223.877 439.883 223.99C439.588 224.099 439.242 224.154 438.844 224.154ZM439.311 222.832C439.673 222.832 439.986 222.76 440.251 222.618C440.516 222.472 440.72 222.28 440.863 222.041C441.008 221.803 441.081 221.542 441.081 221.261V220.361C441.025 220.407 440.929 220.45 440.793 220.49C440.66 220.53 440.511 220.565 440.346 220.594C440.18 220.624 440.016 220.651 439.853 220.674C439.691 220.697 439.55 220.717 439.431 220.734C439.162 220.77 438.922 220.83 438.71 220.913C438.498 220.996 438.33 221.112 438.208 221.261C438.085 221.406 438.024 221.595 438.024 221.827C438.024 222.159 438.145 222.409 438.387 222.578C438.629 222.747 438.937 222.832 439.311 222.832ZM444.686 224V216.364H446.431V217.636H446.51C446.649 217.196 446.888 216.856 447.226 216.617C447.568 216.375 447.957 216.254 448.395 216.254C448.494 216.254 448.605 216.259 448.728 216.269C448.854 216.276 448.958 216.287 449.041 216.304V217.96C448.965 217.933 448.844 217.91 448.678 217.89C448.515 217.867 448.358 217.855 448.206 217.855C447.877 217.855 447.582 217.926 447.321 218.069C447.062 218.208 446.858 218.402 446.709 218.651C446.56 218.899 446.485 219.186 446.485 219.511V224H444.686ZM453.243 227.023C452.597 227.023 452.042 226.935 451.578 226.759C451.114 226.587 450.741 226.355 450.459 226.063C450.177 225.772 449.982 225.448 449.872 225.094L451.493 224.701C451.566 224.85 451.672 224.998 451.811 225.143C451.95 225.293 452.138 225.415 452.373 225.511C452.612 225.611 452.912 225.661 453.273 225.661C453.783 225.661 454.206 225.536 454.541 225.288C454.875 225.042 455.043 224.638 455.043 224.075V222.628H454.953C454.86 222.813 454.725 223.004 454.546 223.2C454.37 223.395 454.136 223.559 453.845 223.692C453.556 223.824 453.193 223.891 452.756 223.891C452.169 223.891 451.637 223.753 451.16 223.478C450.686 223.2 450.308 222.785 450.026 222.235C449.748 221.682 449.609 220.989 449.609 220.157C449.609 219.318 449.748 218.611 450.026 218.034C450.308 217.454 450.688 217.015 451.165 216.717C451.642 216.415 452.174 216.264 452.761 216.264C453.208 216.264 453.576 216.34 453.865 216.493C454.156 216.642 454.388 216.823 454.561 217.035C454.733 217.244 454.864 217.441 454.953 217.626H455.053V216.364H456.828V224.124C456.828 224.777 456.672 225.317 456.36 225.745C456.049 226.173 455.623 226.492 455.083 226.705C454.542 226.917 453.929 227.023 453.243 227.023ZM453.258 222.479C453.639 222.479 453.964 222.386 454.232 222.2C454.501 222.015 454.705 221.748 454.844 221.4C454.983 221.052 455.053 220.634 455.053 220.147C455.053 219.666 454.983 219.246 454.844 218.884C454.708 218.523 454.506 218.243 454.237 218.044C453.972 217.842 453.646 217.741 453.258 217.741C452.857 217.741 452.522 217.845 452.254 218.054C451.985 218.263 451.783 218.549 451.647 218.914C451.511 219.275 451.443 219.686 451.443 220.147C451.443 220.614 451.511 221.024 451.647 221.375C451.786 221.723 451.99 221.995 452.259 222.19C452.53 222.383 452.864 222.479 453.258 222.479ZM462.053 224.149C461.287 224.149 460.626 223.99 460.069 223.672C459.516 223.35 459.09 222.896 458.791 222.31C458.493 221.72 458.344 221.025 458.344 220.227C458.344 219.441 458.493 218.752 458.791 218.158C459.093 217.562 459.514 217.098 460.054 216.766C460.594 216.432 461.229 216.264 461.958 216.264C462.429 216.264 462.873 216.34 463.291 216.493C463.712 216.642 464.083 216.874 464.404 217.189C464.729 217.504 464.984 217.905 465.17 218.392C465.356 218.876 465.448 219.453 465.448 220.122V220.674H459.189V219.461H463.723C463.72 219.116 463.645 218.81 463.499 218.541C463.354 218.269 463.15 218.056 462.888 217.9C462.629 217.744 462.328 217.666 461.983 217.666C461.615 217.666 461.292 217.756 461.014 217.935C460.735 218.11 460.518 218.342 460.362 218.631C460.21 218.916 460.132 219.229 460.129 219.57V220.629C460.129 221.073 460.21 221.455 460.372 221.773C460.535 222.088 460.762 222.33 461.053 222.499C461.345 222.664 461.686 222.747 462.078 222.747C462.339 222.747 462.576 222.711 462.789 222.638C463.001 222.562 463.185 222.451 463.34 222.305C463.496 222.159 463.614 221.978 463.693 221.763L465.374 221.952C465.268 222.396 465.065 222.784 464.767 223.115C464.472 223.443 464.094 223.698 463.634 223.881C463.173 224.06 462.646 224.149 462.053 224.149ZM470.784 216.364V217.756H466.394V216.364H470.784ZM467.478 214.534H469.278V221.703C469.278 221.945 469.314 222.131 469.387 222.26C469.463 222.386 469.563 222.472 469.685 222.518C469.808 222.565 469.944 222.588 470.093 222.588C470.206 222.588 470.308 222.58 470.401 222.563C470.497 222.547 470.57 222.532 470.62 222.518L470.923 223.925C470.827 223.959 470.69 223.995 470.511 224.035C470.335 224.075 470.12 224.098 469.864 224.104C469.414 224.118 469.008 224.05 468.646 223.901C468.285 223.748 467.998 223.513 467.786 223.195C467.577 222.876 467.475 222.479 467.478 222.001V214.534Z"
    fill="#30323E"
  />
<path
    d="M469.598 304.179C468.579 304.179 467.669 304.017 466.868 303.693C466.071 303.365 465.445 302.922 464.989 302.364C464.537 301.801 464.311 301.166 464.311 300.459C464.311 299.918 464.441 299.421 464.701 298.969C464.961 298.518 465.313 298.143 465.756 297.844C466.203 297.542 466.702 297.348 467.252 297.263V297.161C466.532 297.028 465.941 296.694 465.481 296.157C465.025 295.62 464.797 294.991 464.797 294.271C464.797 293.589 465.004 292.982 465.417 292.45C465.835 291.917 466.404 291.497 467.124 291.19C467.848 290.884 468.673 290.73 469.598 290.73C470.522 290.73 471.345 290.884 472.065 291.19C472.789 291.497 473.358 291.917 473.772 292.45C474.189 292.982 474.398 293.589 474.398 294.271C474.398 294.996 474.166 295.626 473.701 296.163C473.241 296.696 472.655 297.028 471.944 297.161V297.263C472.489 297.348 472.983 297.542 473.426 297.844C473.874 298.143 474.228 298.518 474.488 298.969C474.752 299.421 474.884 299.918 474.884 300.459C474.884 301.166 474.656 301.801 474.2 302.364C473.744 302.922 473.118 303.365 472.321 303.693C471.528 304.017 470.62 304.179 469.598 304.179ZM469.598 301.935C469.985 301.935 470.326 301.863 470.62 301.718C470.914 301.569 471.145 301.362 471.311 301.098C471.481 300.834 471.566 300.536 471.566 300.203C471.566 299.862 471.481 299.56 471.311 299.295C471.14 299.031 470.906 298.825 470.608 298.675C470.314 298.522 469.977 298.445 469.598 298.445C469.223 298.445 468.886 298.522 468.588 298.675C468.289 298.825 468.055 299.031 467.885 299.295C467.714 299.56 467.629 299.862 467.629 300.203C467.629 300.536 467.712 300.834 467.878 301.098C468.049 301.358 468.281 301.562 468.575 301.712C468.873 301.861 469.214 301.935 469.598 301.935ZM469.598 296.214C469.93 296.214 470.224 296.146 470.48 296.01C470.74 295.874 470.942 295.684 471.087 295.441C471.236 295.198 471.311 294.923 471.311 294.616C471.311 294.31 471.236 294.039 471.087 293.805C470.942 293.57 470.742 293.387 470.486 293.255C470.23 293.119 469.934 293.05 469.598 293.05C469.265 293.05 468.969 293.119 468.709 293.255C468.449 293.387 468.247 293.57 468.102 293.805C467.957 294.039 467.885 294.31 467.885 294.616C467.885 294.923 467.957 295.198 468.102 295.441C468.251 295.68 468.456 295.869 468.716 296.01C468.975 296.146 469.27 296.214 469.598 296.214ZM482.062 304.32C480.92 304.32 479.936 304.049 479.109 303.508C478.282 302.962 477.645 302.18 477.198 301.162C476.75 300.139 476.529 298.91 476.533 297.474C476.537 296.038 476.761 294.819 477.204 293.817C477.652 292.812 478.287 292.047 479.109 291.523C479.936 290.994 480.92 290.73 482.062 290.73C483.204 290.73 484.189 290.994 485.015 291.523C485.846 292.047 486.485 292.812 486.933 293.817C487.38 294.823 487.602 296.042 487.598 297.474C487.598 298.914 487.374 300.146 486.926 301.168C486.479 302.191 485.842 302.973 485.015 303.514C484.193 304.051 483.208 304.32 482.062 304.32ZM482.062 301.731C482.744 301.731 483.296 301.384 483.718 300.689C484.14 299.99 484.348 298.918 484.344 297.474C484.344 296.528 484.248 295.748 484.056 295.134C483.865 294.516 483.598 294.056 483.257 293.754C482.917 293.451 482.518 293.3 482.062 293.3C481.385 293.3 480.837 293.643 480.419 294.329C480.002 295.011 479.791 296.059 479.787 297.474C479.782 298.433 479.874 299.227 480.061 299.858C480.253 300.489 480.522 300.96 480.867 301.271C481.212 301.577 481.61 301.731 482.062 301.731ZM496.741 301.545V300.855C496.741 300.318 496.857 299.822 497.087 299.366C497.321 298.91 497.66 298.543 498.103 298.266C498.546 297.989 499.087 297.851 499.727 297.851C500.379 297.851 500.926 297.989 501.369 298.266C501.817 298.539 502.153 298.903 502.379 299.359C502.609 299.811 502.724 300.31 502.724 300.855V301.545C502.724 302.082 502.609 302.579 502.379 303.035C502.149 303.491 501.81 303.857 501.363 304.134C500.915 304.411 500.37 304.55 499.727 304.55C499.079 304.55 498.533 304.411 498.09 304.134C497.647 303.857 497.31 303.491 497.08 303.035C496.854 302.579 496.741 302.082 496.741 301.545ZM498.781 300.855V301.545C498.781 301.818 498.847 302.08 498.979 302.332C499.115 302.583 499.364 302.709 499.727 302.709C500.097 302.709 500.347 302.587 500.474 302.344C500.602 302.097 500.666 301.831 500.666 301.545V300.855C500.666 300.57 500.604 300.301 500.481 300.05C500.361 299.794 500.11 299.666 499.727 299.666C499.369 299.666 499.121 299.794 498.985 300.05C498.849 300.301 498.781 300.57 498.781 300.855ZM489.953 294.054V293.364C489.953 292.818 490.07 292.32 490.305 291.868C490.543 291.412 490.884 291.048 491.327 290.775C491.771 290.498 492.308 290.359 492.938 290.359C493.59 290.359 494.138 290.498 494.581 290.775C495.028 291.048 495.367 291.412 495.597 291.868C495.827 292.32 495.942 292.818 495.942 293.364V294.054C495.942 294.599 495.825 295.098 495.591 295.55C495.361 296.001 495.022 296.362 494.575 296.63C494.127 296.898 493.582 297.033 492.938 297.033C492.295 297.033 491.749 296.896 491.302 296.624C490.859 296.351 490.522 295.989 490.292 295.537C490.066 295.085 489.953 294.591 489.953 294.054ZM492.011 293.364V294.054C492.011 294.339 492.077 294.606 492.209 294.853C492.346 295.096 492.589 295.217 492.938 295.217C493.313 295.217 493.562 295.096 493.686 294.853C493.814 294.606 493.878 294.339 493.878 294.054V293.364C493.878 293.078 493.818 292.81 493.699 292.558C493.58 292.303 493.326 292.175 492.938 292.175C492.58 292.175 492.335 292.305 492.203 292.565C492.075 292.825 492.011 293.091 492.011 293.364ZM490.918 304L499.918 290.909H501.663L492.663 304H490.918Z"
    fill="#1E47FF"
  />
<circle
    cx="484.519"
    cy="252"
    r="5.5"
    fill="white"
    stroke="#38B6FF"
    stroke-width="3"
  />
<rect x="149.519" y="362" width="226" height="159" rx="20" fill="white" />
<path
    d="M179.89 383.818V394H178.25L173.452 387.065H173.368V394H171.523V383.818H173.174L177.966 390.759H178.056V383.818H179.89ZM185.201 394.149C184.436 394.149 183.774 393.99 183.217 393.672C182.664 393.35 182.238 392.896 181.94 392.31C181.641 391.72 181.492 391.025 181.492 390.227C181.492 389.441 181.641 388.752 181.94 388.158C182.241 387.562 182.662 387.098 183.203 386.766C183.743 386.432 184.378 386.264 185.107 386.264C185.577 386.264 186.021 386.34 186.439 386.493C186.86 386.642 187.231 386.874 187.553 387.189C187.878 387.504 188.133 387.905 188.318 388.392C188.504 388.876 188.597 389.453 188.597 390.122V390.674H182.338V389.461H186.872C186.868 389.116 186.794 388.81 186.648 388.541C186.502 388.269 186.298 388.056 186.036 387.9C185.778 387.744 185.476 387.666 185.132 387.666C184.764 387.666 184.44 387.756 184.162 387.935C183.884 388.11 183.667 388.342 183.511 388.631C183.358 388.916 183.28 389.229 183.277 389.57V390.629C183.277 391.073 183.358 391.455 183.521 391.773C183.683 392.088 183.91 392.33 184.202 392.499C184.494 392.664 184.835 392.747 185.226 392.747C185.488 392.747 185.725 392.711 185.937 392.638C186.149 392.562 186.333 392.451 186.489 392.305C186.645 392.159 186.762 391.978 186.842 391.763L188.522 391.952C188.416 392.396 188.214 392.784 187.916 393.115C187.621 393.443 187.243 393.698 186.782 393.881C186.321 394.06 185.794 394.149 185.201 394.149ZM193.933 386.364V387.756H189.543V386.364H193.933ZM190.626 384.534H192.426V391.703C192.426 391.945 192.463 392.131 192.535 392.26C192.612 392.386 192.711 392.472 192.834 392.518C192.956 392.565 193.092 392.588 193.241 392.588C193.354 392.588 193.457 392.58 193.55 392.563C193.646 392.547 193.719 392.532 193.768 392.518L194.072 393.925C193.976 393.959 193.838 393.995 193.659 394.035C193.483 394.075 193.268 394.098 193.013 394.104C192.562 394.118 192.156 394.05 191.795 393.901C191.433 393.748 191.147 393.513 190.935 393.195C190.726 392.876 190.623 392.479 190.626 392.001V384.534ZM205.811 387.07C205.728 386.801 205.614 386.561 205.468 386.349C205.325 386.133 205.153 385.949 204.951 385.797C204.752 385.644 204.523 385.53 204.265 385.454C204.006 385.374 203.724 385.335 203.42 385.335C202.873 385.335 202.385 385.472 201.958 385.747C201.53 386.022 201.194 386.427 200.949 386.96C200.707 387.491 200.586 388.137 200.586 388.899C200.586 389.668 200.707 390.319 200.949 390.853C201.191 391.387 201.527 391.793 201.958 392.071C202.389 392.346 202.889 392.484 203.459 392.484C203.976 392.484 204.424 392.384 204.802 392.185C205.183 391.987 205.476 391.705 205.682 391.34C205.887 390.972 205.99 390.541 205.99 390.048L206.407 390.112H203.643V388.67H207.775V389.893C207.775 390.765 207.589 391.519 207.218 392.156C206.847 392.792 206.336 393.282 205.687 393.627C205.037 393.969 204.291 394.139 203.449 394.139C202.511 394.139 201.688 393.929 200.978 393.508C200.273 393.084 199.721 392.482 199.323 391.703C198.929 390.921 198.731 389.993 198.731 388.919C198.731 388.097 198.847 387.363 199.079 386.717C199.315 386.07 199.643 385.522 200.064 385.071C200.485 384.617 200.978 384.272 201.545 384.037C202.112 383.798 202.728 383.679 203.395 383.679C203.958 383.679 204.483 383.762 204.971 383.928C205.458 384.09 205.89 384.322 206.268 384.624C206.649 384.925 206.963 385.283 207.208 385.697C207.453 386.112 207.614 386.569 207.69 387.07H205.811ZM209.479 394V386.364H211.224V387.636H211.303C211.442 387.196 211.681 386.856 212.019 386.617C212.361 386.375 212.75 386.254 213.187 386.254C213.287 386.254 213.398 386.259 213.521 386.269C213.647 386.276 213.751 386.287 213.834 386.304V387.96C213.758 387.933 213.637 387.91 213.471 387.89C213.308 387.867 213.151 387.855 212.999 387.855C212.67 387.855 212.375 387.926 212.114 388.069C211.855 388.208 211.651 388.402 211.502 388.651C211.353 388.899 211.278 389.186 211.278 389.511V394H209.479ZM218.046 394.149C217.3 394.149 216.654 393.985 216.107 393.657C215.56 393.329 215.136 392.87 214.834 392.28C214.536 391.69 214.387 391 214.387 390.212C214.387 389.423 214.536 388.732 214.834 388.138C215.136 387.545 215.56 387.085 216.107 386.756C216.654 386.428 217.3 386.264 218.046 386.264C218.792 386.264 219.438 386.428 219.985 386.756C220.532 387.085 220.954 387.545 221.253 388.138C221.554 388.732 221.705 389.423 221.705 390.212C221.705 391 221.554 391.69 221.253 392.28C220.954 392.87 220.532 393.329 219.985 393.657C219.438 393.985 218.792 394.149 218.046 394.149ZM218.056 392.707C218.46 392.707 218.798 392.596 219.07 392.374C219.342 392.149 219.544 391.847 219.677 391.469C219.813 391.092 219.88 390.671 219.88 390.207C219.88 389.739 219.813 389.317 219.677 388.939C219.544 388.558 219.342 388.254 219.07 388.029C218.798 387.804 218.46 387.691 218.056 387.691C217.642 387.691 217.297 387.804 217.022 388.029C216.75 388.254 216.546 388.558 216.41 388.939C216.278 389.317 216.211 389.739 216.211 390.207C216.211 390.671 216.278 391.092 216.41 391.469C216.546 391.847 216.75 392.149 217.022 392.374C217.297 392.596 217.642 392.707 218.056 392.707ZM224.59 394L222.432 386.364H224.267L225.609 391.733H225.679L227.051 386.364H228.865L230.238 391.703H230.312L231.635 386.364H233.474L231.311 394H229.437L228.005 388.839H227.901L226.469 394H224.59ZM238.544 386.364V387.756H234.154V386.364H238.544ZM235.238 384.534H237.037V391.703C237.037 391.945 237.074 392.131 237.147 392.26C237.223 392.386 237.322 392.472 237.445 392.518C237.568 392.565 237.704 392.588 237.853 392.588C237.965 392.588 238.068 392.58 238.161 392.563C238.257 392.547 238.33 392.532 238.38 392.518L238.683 393.925C238.587 393.959 238.449 393.995 238.27 394.035C238.095 394.075 237.879 394.098 237.624 394.104C237.173 394.118 236.767 394.05 236.406 393.901C236.045 393.748 235.758 393.513 235.546 393.195C235.337 392.876 235.234 392.479 235.238 392.001V384.534ZM242.013 389.526V394H240.213V383.818H241.973V387.661H242.062C242.241 387.23 242.518 386.891 242.893 386.642C243.271 386.39 243.751 386.264 244.334 386.264C244.865 386.264 245.327 386.375 245.722 386.597C246.116 386.819 246.421 387.144 246.636 387.572C246.855 387.999 246.964 388.521 246.964 389.138V394H245.165V389.416C245.165 388.902 245.032 388.503 244.767 388.218C244.505 387.93 244.137 387.786 243.663 387.786C243.345 387.786 243.06 387.855 242.808 387.994C242.56 388.13 242.364 388.327 242.222 388.586C242.082 388.844 242.013 389.158 242.013 389.526Z"
    fill="#30323E"
  />
<rect x="170.519" y="465" width="24" height="34" rx="5" fill="#1E47FF" />
<rect x="202.519" y="453" width="24" height="46" rx="5" fill="#1E47FF" />
<rect x="234.519" y="418" width="24" height="81" rx="5" fill="#38B6FF" />
<rect x="266.519" y="441" width="24" height="58" rx="5" fill="#1E47FF" />
<rect x="298.519" y="426" width="24" height="73" rx="5" fill="#1E47FF" />
<rect x="330.519" y="410" width="24" height="89" rx="5" fill="#38B6FF" />
<circle cx="504.519" cy="428" r="7" fill="#1E47FF" />
<circle cx="148.519" cy="102" r="10" stroke="#1E47FF" stroke-width="4" />
<circle cx="418.519" cy="530" r="7.5" stroke="#2506C4" stroke-width="3" />
<circle cx="148.519" cy="336" r="5" fill="#2506C4" />
<circle cx="337.519" cy="315" r="5" fill="#1E47FF" />
<circle cx="479.519" cy="155" r="8" fill="#38B6FF" />
<circle cx="208.519" cy="554" r="4" fill="#38B6FF" />
<path
    d="M528.519 297C528.519 321.301 508.819 341 484.519 341C460.218 341 440.519 321.301 440.519 297C440.519 272.699 460.218 253 484.519 253C508.819 253 528.519 272.699 528.519 297Z"
    stroke="url(#paint2_angular_12_608)"
    stroke-width="10"
  />
<defs>
<filter
      id="filter0_f_12_608"
      x="0.0582275"
      y="0.447388"
      width="711.948"
      height="704.643"
      filterUnits="userSpaceOnUse"
      color-interpolation-filters="sRGB"
    >
<feFlood flood-opacity="0" result="BackgroundImageFix" />
<feBlend
        mode="normal"
        in="SourceGraphic"
        in2="BackgroundImageFix"
        result="shape"
      />
<feGaussianBlur stdDeviation="75" result="effect1_foregroundBlur_12_608" />
</filter>
<linearGradient
      id="paint0_linear_12_608"
      x1="356.032"
      y1="146.712"
      x2="356.032"
      y2="558.825"
      gradientUnits="userSpaceOnUse"
    >
<stop stop-color="#38B6FF" />
<stop offset="0.5" stop-color="#1E47FF" />
<stop offset="1" stop-color="#2506C4" />
</linearGradient>
<linearGradient
      id="paint1_linear_12_608"
      x1="238.769"
      y1="204.5"
      x2="238.769"
      y2="280"
      gradientUnits="userSpaceOnUse"
    >
<stop stop-color="white" />
<stop offset="1" stop-color="white" stop-opacity="0" />
</linearGradient>
<radialGradient
      id="paint2_angular_12_608"
      cx="0"
      cy="0"
      r="1"
      gradientUnits="userSpaceOnUse"
      gradientTransform="translate(484.519 297) rotate(-90) scale(38)"
    >
<stop stop-color="#1E47FF" />
<stop offset="0.744792" stop-color="#1E47FF" stop-opacity="0.942708" />
<stop offset="0.875" stop-color="#4360E0" stop-opacity="0" />
<stop offset="1" stop-color="#5171FF" stop-opacity="0" />
</radialGradient>
</defs>
</svg>
