<?xml version="1.0" standalone="no"?>
<!DOCTYPE svg PUBLIC "-//W3C//DTD SVG 20010904//EN"
 "http://www.w3.org/TR/2001/REC-SVG-20010904/DTD/svg10.dtd">
<svg version="1.0" xmlns="http://www.w3.org/2000/svg"
 width="500.000000pt" height="500.000000pt" viewBox="0 0 500.000000 500.000000"
 preserveAspectRatio="xMidYMid meet">

<g transform="translate(0.000000,500.000000) scale(0.100000,-0.100000)"
fill="#000000" stroke="none">
<path d="M648 2930 c-25 -26 -29 -36 -24 -62 8 -42 32 -66 72 -74 60 -11 114
44 100 101 -18 70 -95 88 -148 35z"/>
<path d="M3451 2943 c-12 -10 -24 -35 -28 -55 -5 -32 -1 -41 26 -69 28 -27 37
-31 68 -26 50 8 77 38 77 83 0 69 -89 110 -143 67z"/>
<path d="M3136 2858 c-3 -13 -9 -43 -13 -68 -8 -41 -11 -45 -41 -48 -32 -3
-32 -4 -32 -57 0 -51 1 -54 28 -57 l27 -3 5 -130 c6 -152 18 -183 88 -217 34
-16 55 -19 98 -15 29 3 58 8 64 12 5 3 10 28 10 56 l0 49 -40 0 c-60 0 -71 24
-68 146 l3 99 48 3 47 3 0 55 0 54 -50 0 -50 0 0 70 0 70 -60 0 c-54 0 -60 -2
-64 -22z"/>
<path d="M1125 2736 c-17 -7 -43 -27 -57 -45 -15 -17 -29 -31 -32 -31 -3 0 -6
18 -6 40 l0 40 -75 0 -75 0 0 -235 0 -235 75 0 75 0 0 130 c0 145 12 192 54
211 35 16 73 3 91 -31 11 -22 15 -63 15 -170 l0 -140 81 0 82 0 -5 173 c-4
160 -6 176 -29 217 -17 32 -37 52 -69 68 -50 25 -81 27 -125 8z"/>
<path d="M1600 2741 c-56 -13 -85 -27 -123 -60 -89 -79 -94 -255 -9 -344 52
-55 98 -72 197 -72 78 0 96 3 135 25 24 14 55 40 67 59 24 35 39 78 31 86 -11
12 -133 22 -137 12 -8 -21 -50 -56 -75 -63 -59 -14 -126 45 -126 113 0 75 41
123 106 123 36 0 47 -5 73 -36 l32 -36 64 7 c55 6 65 10 65 27 0 47 -59 116
-122 142 -45 19 -132 27 -178 17z"/>
<path d="M2143 2740 c-59 -12 -94 -33 -136 -79 -86 -95 -72 -271 29 -347 92
-71 256 -70 349 1 29 22 65 71 65 89 0 2 -30 8 -66 11 -61 7 -67 6 -92 -17
-36 -34 -74 -42 -116 -24 -29 12 -66 58 -66 80 0 3 80 7 178 8 l177 3 -3 50
c-7 136 -86 217 -223 229 -30 3 -73 1 -96 -4z m118 -110 c19 -10 49 -59 49
-80 0 -6 -37 -10 -101 -10 l-101 0 6 28 c14 58 91 91 147 62z"/>
<path d="M2784 2740 c-18 -6 -46 -26 -62 -45 l-31 -34 -3 37 -3 37 -77 3 -78
3 0 -236 0 -235 80 0 80 0 0 149 c0 166 7 185 67 197 26 5 37 1 57 -19 26 -26
26 -28 26 -177 l0 -150 81 0 81 0 -4 178 c-3 144 -7 183 -21 209 -37 68 -121
104 -193 83z"/>
<path d="M637 2733 c-4 -3 -7 -109 -7 -235 l0 -228 80 0 80 0 0 235 0 235 -73
0 c-41 0 -77 -3 -80 -7z"/>
<path d="M3430 2505 l0 -235 80 0 80 0 -2 233 -3 232 -77 3 -78 3 0 -236z"/>
<path d="M3641 2733 c0 -4 35 -109 78 -233 l77 -225 116 -3 115 -3 76 228 c43
125 77 231 77 236 0 4 -36 7 -79 7 l-80 0 -36 -117 c-20 -65 -44 -142 -52
-170 -9 -29 -19 -50 -22 -47 -3 3 -29 78 -56 167 l-51 162 -82 3 c-45 2 -82
-1 -81 -5z"/>
</g>
</svg>
