<svg width="31" height="27" viewBox="0 0 31 27" fill="none" xmlns="http://www.w3.org/2000/svg">
<path d="M29.459 23.9029V21.4029C29.4582 20.2951 29.0894 19.2189 28.4107 18.3433C27.732 17.4678 26.7816 16.8424 25.709 16.5654" stroke="#1E47FF" stroke-width="2.5" stroke-linecap="round" stroke-linejoin="round"/>
<path d="M22 25.1289V22.6289C22 21.3028 21.4732 20.0311 20.5355 19.0934C19.5979 18.1557 18.3261 17.6289 17 17.6289H7C5.67392 17.6289 4.40215 18.1557 3.46447 19.0934C2.52678 20.0311 2 21.3028 2 22.6289V25.1289" stroke="#1E47FF" stroke-width="2.5" stroke-linecap="round" stroke-linejoin="round"/>
<path d="M19.6392 2C20.7147 2.27538 21.668 2.90088 22.3487 3.77789C23.0295 4.6549 23.399 5.73354 23.399 6.84375C23.399 7.95396 23.0295 9.0326 22.3487 9.90961C21.668 10.7866 20.7147 11.4121 19.6392 11.6875" stroke="#1E47FF" stroke-width="2.5" stroke-linecap="round" stroke-linejoin="round"/>
<path d="M10.9221 12.6719C13.6835 12.6719 15.9221 10.4333 15.9221 7.67188C15.9221 4.91045 13.6835 2.67188 10.9221 2.67188C8.1607 2.67188 5.92212 4.91045 5.92212 7.67188C5.92212 10.4333 8.1607 12.6719 10.9221 12.6719Z" stroke="#1E47FF" stroke-width="2.5" stroke-linecap="round" stroke-linejoin="round"/>
</svg>
